<svg id="Layer_1" xmlns="http://www.w3.org/2000/svg" width="290.6" height="67.7" viewBox="-104 967.3 290.6 67.7"><style>.st0,.st1{fill:#fff}.st1{stroke:#fff;stroke-width:7.391647e-2;stroke-miterlimit:10}.st2{fill:#1d3649}.st3{fill:#00b4a0}.st4{fill:#5aaafa}.st5{fill:#5a6464}</style><path class="st0" d="M-18.6 987.2h2.6v27.1h-2.6v-27.1zM-12.8 987.2h11.5c4.6 0 8.7 1.6 8.7 6.6 0 2.8-1.9 5.5-4.7 6.1v.1c3.5.5 5.7 3.1 5.7 6.6 0 2.6-.9 7.7-9.7 7.7h-11.5v-27.1zm2.6 11.9h8.9c4.1 0 6.1-2 6.1-4.6 0-3.4-2-5.1-6.1-5.1h-8.9v9.7zm0 13h8.9c3.8 0 7.1-1.2 7.1-5.6 0-3.5-2.6-5.2-7.1-5.2h-8.9v10.8zM10.8 987.2h3.8L24 1011l9.3-23.8h3.8v27.1h-2.6v-23.4h-.1l-9.2 23.4h-2.4l-9.3-23.4h-.1v23.4h-2.6v-27.1zM48.5 987.2h12.8c5.2 0 8.7 1.7 8.7 6.7 0 2.7-1.3 4.5-3.7 5.7 3.3.9 5 3.5 5 6.9 0 5.5-4.7 7.9-9.6 7.9H48.6l-.1-27.2zm5.9 11h6c2.1 0 3.6-.9 3.6-3.2 0-2.5-2-3.1-4.1-3.1h-5.6v6.3h.1zm0 11.5h6.4c2.3 0 4.4-.8 4.4-3.6s-1.7-3.9-4.3-3.9h-6.5v7.5zM73.8 987.2h5.4v27.1h-5.4v-27.1zM100.8 1014.3h-5.1v-2.7h-.1c-1.4 2.2-3.7 3.3-6 3.3-5.7 0-7.2-3.2-7.2-8.1v-12.1h5.4v11.1c0 3.2.9 4.8 3.5 4.8 2.9 0 4.2-1.6 4.2-5.6v-10.3h5.4l-.1 19.6zM108.7 1005.8c.2 3.5 1.8 5 4.8 5 2.2 0 3.9-1.3 4.3-2.5h4.7c-1.5 4.7-4.7 6.6-9.2 6.6-6.2 0-10-4.3-10-10.3 0-5.9 4.1-10.4 10-10.4 6.7 0 9.9 5.6 9.5 11.7l-14.1-.1zm8.8-3.4c-.5-2.7-1.7-4.2-4.3-4.2-3.5 0-4.4 2.7-4.5 4.2h8.8zM125.6 994.7h5.1v2.7h.1c1.4-2 3.4-3.2 6-3.2 2.5 0 4.7.9 5.7 3.3 1.2-1.7 3.2-3.3 5.9-3.3 4.2 0 7.2 1.9 7.2 7v13.1h-5.4v-11.1c0-2.6-.2-4.8-3.3-4.8-3 0-3.6 2.5-3.6 5v10.9h-5.4v-11c0-2.3.2-4.9-3.3-4.9-1.1 0-3.6.7-3.6 4.5v11.4h-5.4v-19.6zM164.3 991.7h-5.4v-4.4h5.4v4.4zm-5.4 3h5.4v19.6h-5.4v-19.6zM173.3 1004l-6.5-9.3h6.1l3.5 5.1 3.4-5.1h6l-6.5 9.2 7.2 10.4h-6.1l-4.1-6.2-4.1 6.2h-6l7.1-10.3z"/><g><path class="st1" d="M-45.1 1001l9.6-16.6-9.9-17.1h-19.8l-9.6 16.6H-94l-10 17.1 9.6 16.7.4.6h19.2s.1.2.6 1.1l8.6 14.9.4.6H-45.4l.4-.6 9.6-16.6-9.7-16.7z"/><path class="st2" d="M-82.7 1001c0 2.4.5 4.7 1.4 6.9.9 2.1 2.2 4 3.8 5.7.4.4.7.7 1.1 1v-27.3c-.4.3-.8.7-1.1 1-1.6 1.6-2.9 3.5-3.8 5.7-1 2.3-1.4 4.6-1.4 7z"/><path class="st3" d="M-52.3 988.4c-1.6-1.6-3.5-2.9-5.7-3.8-2.2-.9-4.5-1.4-6.9-1.4-2.1 0-4.1.4-6.1 1.1l23.7 13.7c-.2-1.3-.6-2.6-1.1-3.8-.9-2.2-2.2-4.2-3.9-5.8zM-73.2 985.2l8.7 15.1H-47v-.6l-25.6-14.8-.6.3z"/><path class="st4" d="M-47 1001.7h-17.4l-8.7 15.1c.2.1.3.2.5.3l25.5-14.8c0-.2.1-.4.1-.6zM-57.9 1017.5c2.1-.9 4-2.2 5.7-3.8 1.6-1.6 2.9-3.5 3.8-5.7.5-1.2.9-2.5 1.1-3.9l-23.7 13.7c2 .7 4 1.1 6.1 1.1 2.4 0 4.8-.5 7-1.4z"/><path class="st2" d="M-65.7 1001l-8.7-15.1c-.1 0-.5.3-.5.3v29.5c.2.1.3.2.5.3l8.7-15z"/><path class="st5" d="M-64.5 1001.7z"/><path class="st3" d="M-64.9 981.8c9.9 0 18 7.4 19.1 17 0 .3.1.5.1.8l8.8-15.2-9.2-16h-18.4l-8.8 15.3c.3-.1.5-.3.8-.4 2.3-.9 4.9-1.5 7.6-1.5z"/><path class="st4" d="M-45.7 1002.4c0 .3 0 .6-.1.8-1.1 9.6-9.2 17-19.1 17-2.7 0-5.3-.6-7.6-1.6-.3-.1-.5-.2-.8-.4l8.8 15.3h18.4l9.2-15.9-8.8-15.2z"/><path class="st2" d="M-75.6 985.1h-17.7l-9.2 15.9 9.2 15.9h17.6c-.2-.2-.5-.3-.7-.5-4.7-3.5-7.7-9.1-7.7-15.4s3-11.9 7.7-15.4c.3-.2.5-.4.8-.5z"/></g></svg>